<svg xmlns="http://www.w3.org/2000/svg" xmlns:xlink="http://www.w3.org/1999/xlink" width="32" height="32" viewBox="0 0 32 32">
  <defs>
    <clipPath id="clip-_32x32">
      <rect width="32" height="32"/>
    </clipPath>
  </defs>
  <g id="_32x32" data-name="32x32" clip-path="url(#clip-_32x32)">
    <g id="Page-1" transform="translate(-8.431 3)">
      <g id="Homepage-2" transform="translate(9.431 -1)">
        <g id="Stardust-Logo-SVG" transform="translate(0)">
          <path id="Path_10" d="M18.185,11.135,16.76,8.289,9.431,8.2l6.627,4.9Z" transform="translate(-9.431 0.851)" fill="#219bdd"/>
          <path id="Path_11" d="M27.426,9.536l5.224,2.729,5.329-3.72L27.56,8.42Z" transform="translate(-7.565 0.873)" fill="#219bdd"/>
          <path id="Path_12" d="M22.116,7.268l2.69-2.492L23.063,0,20.656,6.506Z" transform="translate(-8.267)" fill="#219bdd"/>
          <path id="Path_13" d="M26.684,16.091l-.592,4.932L32.5,25.762l-3.641-9.978Z" transform="translate(-7.703 1.637)" fill="#219bdd"/>
          <path id="Path_14" d="M21.11,16.939l-4.471.63-2.987,8.072,8.755-6.112Z" transform="translate(-8.993 1.757)" fill="#219bdd"/>
          <circle id="Ellipse_1" cx="3.768" cy="3.768" r="3.768" transform="translate(10.686 9.6)" fill="#219bdd"/>
        </g>
      </g>
    </g>
  </g>
</svg>
